# xmcd
#
# Track frame offsets: 
#        150
#        23387
#        48523
#        67564
#        90662
#        115878
#        138763
#        163777
#        185071
#        215459
#        239026
#        256936
#
# Disc length: 3740 seconds
#
# Revision: 0
# Processed by: cddbd v1.5.2PL0 Copyright (c) Steve Scherf et al.
# Submitted via: ExactAudioCopy v1.3
#
DISCID=9d0e9a0c
DTITLE=John Primer and The Real Deal Blues Band - The Soul Of A Blues Ma
DTITLE=n
DYEAR=2019
DGENRE=Blues, Soul Blues
TTITLE0=Slip Away
TTITLE1=Help Me Through The Day
TTITLE2=Meet Me In The Morning
TTITLE3=You Shouldn't Tell A Lie
TTITLE4=Nothing Takes The Place Of You 
TTITLE5=Stagger Lee
TTITLE6=Please Don't Leave Me
TTITLE7=Get Your Money Where You Spend Your Time
TTITLE8=Rainy Night In Georgia
TTITLE9=Meet Me In The Park
TTITLE10=Members Only
TTITLE11=Still Called The Blues
EXTD=
EXTT0=
EXTT1=
EXTT2=
EXTT3=
EXTT4=
EXTT5=
EXTT6=
EXTT7=
EXTT8=
EXTT9=
EXTT10=
EXTT11=
PLAYORDER=
